<svg id="Layer_1" data-name="Layer 1" xmlns="http://www.w3.org/2000/svg" viewBox="0 0 24 24"><title>Artboard 24</title><rect x="5" y="8" width="2" height="2" id="id_117" style="fill: rgb(252, 252, 252);"></rect><rect x="9" y="8" width="2" height="2" id="id_118" style="fill: rgb(255, 255, 255);"></rect><rect x="13" y="8" width="2" height="2" id="id_119" style="fill: rgb(252, 252, 252);"></rect><rect x="17" y="8" width="2" height="2" id="id_120" style="fill: rgb(255, 255, 255);"></rect><rect x="5" y="11" width="2" height="2" id="id_121" style="fill: rgb(255, 255, 255);"></rect><rect x="9" y="11" width="2" height="2" id="id_122" style="fill: rgb(255, 255, 255);"></rect><rect x="13" y="11" width="2" height="2" id="id_123" style="fill: rgb(255, 255, 255);"></rect><rect x="17" y="11" width="2" height="2" id="id_124" style="fill: rgb(255, 255, 255);"></rect><rect x="5" y="14" width="2" height="2" id="id_125" style="fill: rgb(255, 255, 255);"></rect><rect x="9" y="14" width="2" height="2" id="id_126" style="fill: rgb(255, 255, 255);"></rect><rect x="13" y="14" width="2" height="2" id="id_127" style="fill: rgb(255, 255, 255);"></rect><rect x="17" y="14" width="2" height="2" id="id_128" style="fill: rgb(255, 255, 255);"></rect><rect x="5" y="17" width="2" height="2" id="id_129" style="fill: rgb(255, 255, 255);"></rect><rect x="9" y="17" width="2" height="2" id="id_130" style="fill: rgb(255, 255, 255);"></rect><rect x="13" y="17" width="2" height="2" id="id_131" style="fill: rgb(255, 255, 255);"></rect><path d="M20,1H16V4H14V3.37A1.37,1.37,0,0,0,12.63,2H11.37A1.37,1.37,0,0,0,10,3.37V4H8V1H4A3,3,0,0,0,1,4V20a3,3,0,0,0,3,3H20a3,3,0,0,0,3-3V4A3,3,0,0,0,20,1Zm1,19a1,1,0,0,1-1,1H4a1,1,0,0,1-1-1V4A1,1,0,0,1,4,3H6V6H18V3h2a1,1,0,0,1,1,1Z" id="id_132" style="fill: rgb(255, 255, 255);"></path></svg>